<svg id="Layer_1" data-name="Layer 1" xmlns="http://www.w3.org/2000/svg" viewBox="0 0 545.98 542.04"><defs><style>.cls-1{fill:#f87000;}</style></defs><path class="cls-1" d="M599.6,671a73.45,73.45,0,1,1,51.9-21.49A73,73,0,0,1,599.6,671Z" transform="translate(-127.01 -128.98)"/><path class="cls-1" d="M200.51,279.3a73.46,73.46,0,1,1,51.91-21.5A73,73,0,0,1,200.51,279.3Z" transform="translate(-127.01 -128.98)"/><path class="cls-1" d="M596.32,277.15a73.45,73.45,0,1,1,51.92-21.48A73,73,0,0,1,596.32,277.15Z" transform="translate(-127.01 -128.98)"/><path class="cls-1" d="M202.42,671a73.44,73.44,0,0,1-51.94-125.4,67.27,67.27,0,0,1,10.34-8.42c1.26-.87,2.42-1.56,3.61-2.29,2.72-1.56,5.43-3,8-4.15,1.37-.61,2.79-1.25,4.28-1.82a78.29,78.29,0,0,1,9-2.65l1.87-.51c.38-.1.74-.23,1.12-.32L205,524.35c2.07.09,4.29.35,6.66.66l.93.12c.56.07,1.31.13,2.06.17l.66.05.75.15h.65q1.8.06,3.57.06c28.19,0,56-12,76.36-32.92s31.4-48.85,30.6-76.89l0-.83-.16-.87a18.9,18.9,0,0,1-.25-2.36c-.07-.95-.15-1.88-.27-2.82l-.18-1.65c-.16-1.42-.31-2.79-.41-4.2l1.25-16.41a11.66,11.66,0,0,1,.35-1.19l.29-1a71.9,71.9,0,0,1,2.74-9.24,39.53,39.53,0,0,1,1.8-4.28,82.78,82.78,0,0,1,4.26-8.15c.69-1.16,1.37-2.33,2.17-3.47a71.53,71.53,0,0,1,8.46-10.44,73.46,73.46,0,1,1,103.88,103.9,70.69,70.69,0,0,1-10.35,8.42c-1.22.83-2.38,1.52-3.54,2.21a83.62,83.62,0,0,1-8,4.2c-1.43.64-2.87,1.3-4.25,1.82a71.54,71.54,0,0,1-8.93,2.64l-1.76.49c-.4.11-.79.24-1.18.34L396.63,474c-1.93-.08-4-.34-6.11-.61l-1.47-.19c-.49-.08-1.26-.13-2-.18l-.58-.05-.85-.17h-.66c-1.2,0-2.39-.05-3.58-.05-28.19,0-56,12-76.33,32.91s-31.41,48.88-30.62,76.92l0,.84.15.83a21.2,21.2,0,0,1,.26,2.37c.06,1,.15,1.88.26,2.82,0,.55.14,1.57.27,2.56a31.31,31.31,0,0,1,.27,3.34v.4l-1.18,15.73c-.08.33-.6,2.14-.75,2.71a75.26,75.26,0,0,1-2.7,9.09,45,45,0,0,1-1.75,4.15c-1.28,2.79-2.66,5.47-4.24,8.19-.69,1.11-1.51,2.42-2.34,3.67A71.93,71.93,0,0,1,202.43,671Z" transform="translate(-127.01 -128.98)"/><path class="cls-1" d="M400.81,671a73.45,73.45,0,0,1-52-125.36,72,72,0,0,1,10.44-8.5c1.08-.74,2.26-1.45,3.49-2.16a79.94,79.94,0,0,1,8-4.22c1.43-.65,2.83-1.3,4.26-1.84a68.94,68.94,0,0,1,8.85-2.57s2.58-.75,2.91-.83l16.62-1.22c2,.09,4.07.38,6.28.66l1.23.16c.82.08,1.5.15,2.19.16.27,0,.54,0,.8.05l.52.07.7.07c1.21,0,2.45.06,3.66.06,28.14,0,55.92-12,76.21-32.89s31.4-48.87,30.6-76.91l-.1-3.42-.31-.38c0-.11,0-.25,0-.38-.05-.79-.09-1.6-.17-2.41l-.27-2.35c-.15-1.3-.32-2.57-.37-3.87l1.14-15.9c.09-.39.66-2.36.79-3a79.69,79.69,0,0,1,2.69-9c.53-1.48,1.16-2.83,1.81-4.25a86,86,0,0,1,4.24-8l.32-.52a33,33,0,0,1,1.78-2.86,73.27,73.27,0,0,1,112.42-10.54,73.63,73.63,0,0,1,0,103.94,74.39,74.39,0,0,1-10.4,8.42c-.84.57-1.63,1.05-2.43,1.53l-1.28.8c-2.46,1.45-5.14,2.85-7.74,4.05-1.47.66-2.86,1.29-4.32,1.84a73,73,0,0,1-9,2.64c-.72.17-1.3.35-1.87.53-.4.1-.77.22-1.16.31L595,474c-2.39-.1-5-.45-7.48-.78-.85-.11-1.51-.14-2.16-.18-.25,0-.5,0-.75,0l-1.39-.15c-1.22-.05-2.43-.07-3.63-.07-28.16,0-55.94,12-76.25,32.89S472,554.56,472.77,582.63l0,.82.16.81a21.12,21.12,0,0,1,.25,2.51c.06.86.13,1.71.22,2.54s.16,1.58.25,2.44c.15,1.25.3,2.5.33,3.74l-1.21,16.12c-.09.35-.72,2.53-.72,2.53a75.31,75.31,0,0,1-2.69,9.22c-.49,1.32-1.07,2.59-1.66,3.93l-.21.46a79.17,79.17,0,0,1-4.11,7.76c-.75,1.26-1.49,2.48-2.27,3.65a74.74,74.74,0,0,1-8.49,10.42A72.78,72.78,0,0,1,400.81,671Z" transform="translate(-127.01 -128.98)"/><path class="cls-1" d="M202.44,472.67a73.11,73.11,0,0,1-41.59-133.84c1.11-.75,2.36-1.52,3.62-2.27a85.52,85.52,0,0,1,7.9-4.15c1.42-.65,2.83-1.28,4.33-1.84a69.74,69.74,0,0,1,8.78-2.56l1.87-.53c.35-.1.68-.21,1-.29L205,326c2.16.09,4.5.4,6.94.73l.52.07c.85.09,1.51.12,2.18.16.24,0,.48,0,.72,0l.71.13.68,0c1.23,0,2.44.06,3.66.06,28.12,0,55.9-12,76.21-32.89s31.38-48.88,30.56-76.93l0-.81-.16-.8a22,22,0,0,1-.25-2.7c0-.74-.09-1.48-.17-2.25l-.25-2.26a39.89,39.89,0,0,1-.37-4.08l1.1-15.43.1-.36v-.3c.09-.36.7-2.4.7-2.4a76.45,76.45,0,0,1,2.7-9.33c.52-1.38,1.17-2.77,1.83-4.21a79.75,79.75,0,0,1,4.21-8l.25-.42c.63-1.06,1.26-2.12,2-3.18a73.32,73.32,0,0,1,112.34-10.33,73.57,73.57,0,0,1,0,103.91,69.45,69.45,0,0,1-10.34,8.38c-1.13.8-2.1,1.37-3.1,2l-.54.32a85.13,85.13,0,0,1-7.86,4.15c-1.48.69-2.87,1.31-4.27,1.83a72.77,72.77,0,0,1-9,2.66c-.69.17-1.31.35-1.94.52-.38.1-.76.23-1.15.32l-16.29,1.14c-2.05-.11-4.26-.38-6.58-.67l-1-.13c-.75-.09-1.44-.12-2.11-.17a5.55,5.55,0,0,1-.82-.06l-.55-.07-.71-.05c-1.22,0-2.43-.07-3.65-.07-28.13,0-55.91,12-76.21,32.87s-31.4,48.89-30.61,76.95l0,.82.14.81a17.51,17.51,0,0,1,.27,2.51c.05.86.12,1.7.21,2.57.07.68.17,1.55.28,2.42.13,1.23.29,2.44.31,3.65l-1.17,16c-.09.41-.22.83-.35,1.26l-.41,1.43a73.83,73.83,0,0,1-2.66,9.22c-.53,1.39-1.2,2.82-1.87,4.29a79.44,79.44,0,0,1-4.17,7.91c-.76,1.28-1.46,2.47-2.23,3.6a70.55,70.55,0,0,1-8.44,10.39,72.94,72.94,0,0,1-51.9,21.49Z" transform="translate(-127.01 -128.98)"/></svg>